HIERARCHY
ROOT joint_Root
{
	OFFSET 0.0 0.0 0.0
	CHANNELS 6 Xposition Yposition Zposition Zrotation Xrotation Yrotation 
	JOINT Hips
	{
		OFFSET 4.5925 91.4895 -427.239
		CHANNELS 6 Xposition Yposition Zposition Zrotation Xrotation Yrotation 
		JOINT Spine
		{
			OFFSET 15.7357 0.0 0.0
			CHANNELS 6 Xposition Yposition Zposition Zrotation Xrotation Yrotation 
			JOINT Chest
			{
				OFFSET 8.98455 -0.406207 0.0
				CHANNELS 6 Xposition Yposition Zposition Zrotation Xrotation Yrotation 
				JOINT Neck
				{
					OFFSET 16.3773 0.0 0.0
					CHANNELS 6 Xposition Yposition Zposition Zrotation Xrotation Yrotation 
					JOINT Head
					{
						OFFSET 6.45672 0.0 0.0
						CHANNELS 6 Xposition Yposition Zposition Zrotation Xrotation Yrotation 
						End Site
						{
							OFFSET 0.0 0.0 0.0
						}
					}
				}
				JOINT Shoulder_L
				{
					OFFSET 12.9942 -0.242716 4.98039
					CHANNELS 6 Xposition Yposition Zposition Zrotation Xrotation Yrotation 
					JOINT UpperArm_L
					{
						OFFSET 5.34809 0.0 0.0
						CHANNELS 6 Xposition Yposition Zposition Zrotation Xrotation Yrotation 
						JOINT LowerArm_L
						{
							OFFSET 24.3286 1.87007e-05 0.0
							CHANNELS 6 Xposition Yposition Zposition Zrotation Xrotation Yrotation 
							JOINT Hand_L
							{
								OFFSET 22.2916 0.0 0.0
								CHANNELS 6 Xposition Yposition Zposition Zrotation Xrotation Yrotation 
								End Site
								{
									OFFSET 0.0 0.0 0.0
								}
							}
						}
					}
				}
				JOINT Shoulder_R
				{
					OFFSET 12.9945 -0.242716 -4.98039
					CHANNELS 6 Xposition Yposition Zposition Zrotation Xrotation Yrotation 
					JOINT UpperArm_R
					{
						OFFSET -5.34813 0.0 0.0
						CHANNELS 6 Xposition Yposition Zposition Zrotation Xrotation Yrotation 
						JOINT LowerArm_R
						{
							OFFSET -24.3289 0.000322201 0.0
							CHANNELS 6 Xposition Yposition Zposition Zrotation Xrotation Yrotation 
							JOINT Hand_R
							{
								OFFSET -22.2915 -0.000108084 0.0
								CHANNELS 6 Xposition Yposition Zposition Zrotation Xrotation Yrotation 
								End Site
								{
									OFFSET 0.0 0.0 0.0
								}
							}
						}
					}
				}
			}
		}
		JOINT UpperLeg_L
		{
			OFFSET -2.19248 -6.46944 0.0
			CHANNELS 6 Xposition Yposition Zposition Zrotation Xrotation Yrotation 
			JOINT LowerLeg_L
			{
				OFFSET 39.0811 0.0 -1.23785e-05
				CHANNELS 6 Xposition Yposition Zposition Zrotation Xrotation Yrotation 
				JOINT Foot_L
				{
					OFFSET 40.9854 0.0 -1.26872e-05
					CHANNELS 6 Xposition Yposition Zposition Zrotation Xrotation Yrotation 
					JOINT Toes_L
					{
						OFFSET 11.7543 0.0 0.0
						CHANNELS 6 Xposition Yposition Zposition Zrotation Xrotation Yrotation 
						End Site
						{
							OFFSET 0.0 0.0 0.0
						}
					}
				}
			}
		}
		JOINT UpperLeg_R
		{
			OFFSET -2.19251 6.46944 0.0
			CHANNELS 6 Xposition Yposition Zposition Zrotation Xrotation Yrotation 
			JOINT LowerLeg_R
			{
				OFFSET -39.0811 -0.00228153 -0.0401928
				CHANNELS 6 Xposition Yposition Zposition Zrotation Xrotation Yrotation 
				JOINT Foot_R
				{
					OFFSET -40.9854 0.0 0.0
					CHANNELS 6 Xposition Yposition Zposition Zrotation Xrotation Yrotation 
					JOINT Toes_R
					{
						OFFSET -11.7543 0.0 0.0
						CHANNELS 6 Xposition Yposition Zposition Zrotation Xrotation Yrotation 
						End Site
						{
							OFFSET 0.0 0.0 0.0
						}
					}
				}
			}
		}
	}
}
MOTION
Frames:	4
Frame Time:	0.0333333
0.000000 0.000000 0.000000 0.000000 0.000000 -0.000000 3.166490 90.327700 -1.756310 89.582500 -6.526940 15.970400 15.735700 0.000005 -0.000001 99.670300 81.227000 -103.752000 8.984550 -0.406207 -0.000000 9.655270 2.862400 -8.401090 16.377300 -0.000001 -0.000001 21.859900 1.077080 -3.930540 6.456720 -0.000001 -0.000000 9.491530 1.861490 -17.800700 12.994200 -0.242716 4.980390 -92.410600 7.065400 -71.106800 5.348090 -0.000007 -0.000001 -57.542500 30.915900 -11.785000 24.328600 0.000019 0.000005 7.786910 26.700300 -16.927300 22.291600 -0.000001 0.000005 11.137000 5.204540 2.605060 12.994500 -0.242716 -4.980390 90.378300 -1.486820 -75.721900 -5.348130 -0.000001 -0.000004 -39.122700 -44.257100 -54.975400 -24.328900 0.000322 -0.000009 -8.533470 -9.455510 -42.403600 -22.291500 -0.000108 -0.000004 25.370900 5.419020 -3.566060 -2.192480 -6.469440 -0.000000 -175.900000 -15.123700 4.352210 39.081100 -0.000007 -0.000012 -0.110282 0.168414 33.218200 40.985400 -0.000006 -0.000013 2.819170 2.760260 -71.636100 11.754300 -0.000000 0.000003 -0.000196 -0.001824 -16.646400 -2.192510 6.469440 -0.000001 170.233000 17.701900 -176.064000 -39.081100 -0.002282 -0.040193 -0.190873 0.302673 32.681000 -40.985400 0.000008 0.000006 0.713329 13.186200 -69.316500 -11.754300 -0.000006 -0.000006 -0.003654 -0.047795 -18.517100
0.000000 0.000000 0.000000 0.000000 0.000000 -0.000000 3.239540 90.316300 -1.824640 89.589200 -6.639730 16.137800 15.735700 0.000005 -0.000001 99.457100 81.101500 -103.574000 8.984550 -0.406207 -0.000000 9.913550 2.828720 -8.473810 16.377300 -0.000001 -0.000001 21.750300 1.208710 -4.297860 6.456720 -0.000001 -0.000000 9.519060 1.973590 -17.738400 12.994200 -0.242716 4.980390 -92.464000 7.171850 -70.982300 5.348090 -0.000007 -0.000001 -57.276200 30.822400 -11.903300 24.328600 0.000019 0.000005 7.809820 26.603600 -17.028800 22.291600 -0.000001 0.000005 11.068400 5.205430 2.582860 12.994500 -0.242716 -4.980390 90.247100 -0.998701 -76.104600 -5.348130 -0.000001 -0.000004 -39.388900 -43.408800 -51.622200 -24.328900 0.000322 -0.000009 -8.369790 -9.932220 -40.460300 -22.291500 -0.000108 -0.000004 25.131100 5.414900 -3.427970 -2.192480 -6.469440 -0.000000 -175.914000 -15.180100 4.449430 39.081100 -0.000007 -0.000012 -0.106431 0.162179 33.275500 40.985400 -0.000006 -0.000013 2.855410 2.676720 -71.628500 11.754300 -0.000000 0.000003 -0.000199 -0.001842 -16.647000 -2.192510 6.469440 -0.000001 170.203000 17.526100 -176.014000 -39.081100 -0.002282 -0.040193 -0.188649 0.298506 32.742000 -40.985400 0.000008 0.000006 0.665601 13.145400 -69.268600 -11.754300 -0.000006 -0.000006 -0.003421 -0.045281 -18.414800
0.000000 0.000000 0.000000 0.000000 0.000000 -0.000000 3.322770 90.309200 -1.910720 89.615500 -6.763400 16.259700 15.735700 0.000005 -0.000001 99.300400 80.981900 -103.444000 8.984550 -0.406207 -0.000000 10.158000 2.809310 -8.532610 16.377300 -0.000001 -0.000001 21.678100 1.305350 -4.595260 6.456720 -0.000001 -0.000000 9.522620 2.077790 -17.706500 12.994200 -0.242716 4.980390 -92.500700 7.251670 -70.915200 5.348090 -0.000007 -0.000001 -57.043100 30.887700 -12.182000 24.328600 0.000019 0.000005 7.740710 26.237000 -17.091100 22.291600 -0.000001 0.000005 11.039600 5.209000 2.492680 12.994500 -0.242716 -4.980390 90.134000 -0.551567 -76.346100 -5.348130 -0.000001 -0.000004 -39.886800 -42.506100 -48.802000 -24.328900 0.000322 -0.000009 -8.056740 -10.376500 -38.159500 -22.291500 -0.000108 -0.000004 24.841400 5.408110 -3.202880 -2.192480 -6.469440 -0.000000 -175.996000 -15.132800 4.493210 39.081100 -0.000007 -0.000012 -0.109273 0.166309 33.307200 40.985400 -0.000006 -0.000013 2.862660 2.503120 -71.595600 11.754300 -0.000000 0.000003 -0.000197 -0.001826 -16.646500 -2.192510 6.469440 -0.000001 170.201000 17.293100 -176.042000 -39.081100 -0.002282 -0.040193 -0.181693 0.287029 32.801800 -40.985400 0.000008 0.000006 0.604926 13.059100 -69.202300 -11.754300 -0.000006 -0.000006 -0.003645 -0.047692 -18.512900
0.000000 0.000000 0.000000 0.000000 0.000000 -0.000000 3.402140 90.294500 -2.005540 89.675800 -6.881280 16.337900 15.735700 0.000005 -0.000001 99.020500 80.885900 -103.194000 8.984550 -0.406207 -0.000000 10.359900 2.744130 -8.592870 16.377300 -0.000001 -0.000001 21.649200 1.375510 -4.859890 6.456720 -0.000001 -0.000000 9.561820 2.199950 -17.664500 12.994200 -0.242716 4.980390 -92.517600 7.281180 -70.867400 5.348090 -0.000007 -0.000001 -56.992400 30.763900 -12.369900 24.328600 0.000019 0.000005 7.872680 26.193000 -17.394000 22.291600 -0.000001 0.000005 10.999800 5.209390 2.482620 12.994500 -0.242716 -4.980390 90.041300 -0.173374 -76.587500 -5.348130 -0.000001 -0.000004 -40.857500 -41.772300 -46.627600 -24.328900 0.000322 -0.000009 -7.622850 -10.801000 -35.529500 -22.291500 -0.000108 -0.000004 24.270800 5.400410 -2.950720 -2.192480 -6.469440 -0.000000 -176.108000 -15.168900 4.471390 39.081100 -0.000007 -0.000012 -0.104953 0.159395 33.363200 40.985400 -0.000006 -0.000013 2.890620 2.378140 -71.569300 11.754300 -0.000000 0.000003 -0.000189 -0.001765 -16.644200 -2.192510 6.469440 -0.000001 170.206000 16.989700 -176.155000 -39.081100 -0.002282 -0.040193 -0.177872 0.279842 32.919000 -40.985400 0.000008 0.000006 0.520426 12.875300 -69.164000 -11.754300 -0.000006 -0.000006 -0.003759 -0.048915 -18.562700
